<svg width="14" height="15" viewBox="0 0 14 15" fill="none" xmlns="http://www.w3.org/2000/svg">
<path d="M8.13609 2.16267L9.22052 4.33154C9.3684 4.63346 9.76274 4.92305 10.0955 4.9785L12.061 5.30507C13.318 5.51456 13.6137 6.42647 12.708 7.32606L11.1799 8.85412C10.9211 9.11291 10.7794 9.61199 10.8595 9.96936L11.297 11.861C11.642 13.3582 10.8472 13.9374 9.52244 13.1549L7.68013 12.0643C7.34741 11.8671 6.79903 11.8671 6.46014 12.0643L4.61784 13.1549C3.29927 13.9374 2.49826 13.3521 2.84331 11.861L3.28078 9.96936C3.36088 9.61199 3.21917 9.11291 2.96038 8.85412L1.43232 7.32606C0.532728 6.42647 0.822321 5.51456 2.07928 5.30507L4.04481 4.9785C4.37138 4.92305 4.76572 4.63346 4.91359 4.33154L5.99803 2.16267C6.58954 0.985815 7.55074 0.985815 8.13609 2.16267Z" fill="#E88011" stroke="#E88011" stroke-linecap="round" stroke-linejoin="round"/>
</svg>
