<svg width="22" height="18" viewBox="0 0 22 18" fill="none" xmlns="http://www.w3.org/2000/svg">
<path d="M20.0314 4.23985L11.8484 0.196881C11.5844 0.067348 11.2941 0 11 0C10.7059 0 10.4156 0.067348 10.1516 0.196881L1.9686 4.23985C1.52797 4.45363 1.15649 4.78724 0.896749 5.20243C0.637005 5.61762 0.499502 6.0976 0.500001 6.58735V15.2409C0.500001 16.6884 1.69156 17.8659 3.15641 17.8659H18.8436C20.3084 17.8659 21.5 16.6884 21.5 15.2409V6.58735C21.5005 6.0976 21.363 5.61762 21.1033 5.20243C20.8435 4.78724 20.472 4.45363 20.0314 4.23985ZM10.8303 1.53844C10.8831 1.51254 10.9412 1.49907 11 1.49907C11.0588 1.49907 11.1169 1.51254 11.1697 1.53844L19.1094 5.46001L11.0469 9.44438C10.9941 9.47029 10.936 9.48376 10.8772 9.48376C10.8184 9.48376 10.7603 9.47029 10.7075 9.44438L2.76641 5.52235L10.8303 1.53844Z" fill="#989898"/>
</svg>
