<svg width="20" height="22" viewBox="0 0 20 22" fill="none" xmlns="http://www.w3.org/2000/svg">
<path d="M13.5925 2.02719C12.6803 1.04234 11.4063 0.5 10 0.5C8.58625 0.5 7.30797 1.03906 6.4 2.01781C5.48219 3.00734 5.035 4.35219 5.14 5.80437C5.34813 8.66937 7.52828 11 10 11C12.4717 11 14.6481 8.66984 14.8595 5.80531C14.9659 4.36625 14.5159 3.02422 13.5925 2.02719ZM18.25 21.5H1.75C1.53403 21.5028 1.32015 21.4574 1.12392 21.3672C0.927692 21.2769 0.754049 21.1441 0.615626 20.9783C0.310939 20.6141 0.188126 20.1167 0.279064 19.6137C0.674689 17.4191 1.90938 15.5755 3.85 14.2812C5.57406 13.1323 7.75797 12.5 10 12.5C12.242 12.5 14.4259 13.1328 16.15 14.2812C18.0906 15.575 19.3253 17.4186 19.7209 19.6133C19.8119 20.1162 19.6891 20.6136 19.3844 20.9778C19.246 21.1437 19.0724 21.2766 18.8761 21.367C18.6799 21.4573 18.466 21.5028 18.25 21.5Z" fill="#989898"/>
</svg>
