<svg width="24" height="24" viewBox="0 0 24 24" xmlns="http://www.w3.org/2000/svg">
<path d="M2.25 20.0625L8.06625 14.2453C7.12893 12.9572 6.62472 11.4049 6.62625 9.81188C6.62625 5.64234 10.0186 2.25 14.1881 2.25C18.3577 2.25 21.75 5.64234 21.75 9.81188C21.75 13.9814 18.3577 17.3738 14.1881 17.3738C12.5951 17.3753 11.0428 16.8711 9.75469 15.9338L3.9375 21.75L2.25 20.0625ZM14.1881 14.9855C15.2115 14.9856 16.2119 14.6822 17.0629 14.1137C17.9138 13.5452 18.577 12.7371 18.9687 11.7917C19.3604 10.8462 19.4629 9.80583 19.2633 8.80211C19.0636 7.7984 18.5708 6.87643 17.8472 6.15279C17.1236 5.42916 16.2016 4.93637 15.1979 4.73674C14.1942 4.53711 13.1538 4.63961 12.2083 5.03129C11.2629 5.42296 10.4548 6.0862 9.88632 6.93714C9.31782 7.78809 9.01444 8.7885 9.01453 9.81188C9.01614 11.1835 9.56174 12.4985 10.5316 13.4684C11.5015 14.4383 12.8165 14.9839 14.1881 14.9855Z" />
</svg>
