<svg width="20" height="20" viewBox="0 0 20 20" fill="none" xmlns="http://www.w3.org/2000/svg">
<path d="M19.082 0.61171C18.9405 0.470161 18.761 0.372552 18.5652 0.330635C18.3695 0.288718 18.1658 0.30428 17.9786 0.375447L0.669156 6.92721H0.665694C0.466114 7.00398 0.295095 7.14048 0.175995 7.31808C0.0568952 7.49568 -0.00447923 7.70572 0.000254621 7.9195C0.00498847 8.13329 0.0755998 8.3404 0.202444 8.51256C0.329289 8.68471 0.506182 8.81351 0.708965 8.88136L0.726706 8.88699L6.66774 11.424C6.78362 11.4592 6.90669 11.4634 7.02469 11.4361C7.14268 11.4088 7.25146 11.3511 7.34016 11.2687L16.8752 2.38369C16.9037 2.35527 16.9374 2.33274 16.9745 2.31736C17.0116 2.30198 17.0514 2.29407 17.0916 2.29407C17.1318 2.29407 17.1716 2.30198 17.2087 2.31736C17.2458 2.33274 17.2795 2.35527 17.3079 2.38369C17.3364 2.4121 17.3589 2.44583 17.3743 2.48295C17.3896 2.52008 17.3976 2.55986 17.3976 2.60004C17.3976 2.64023 17.3896 2.68001 17.3743 2.71714C17.3589 2.75426 17.3364 2.78799 17.3079 2.8164L8.42279 12.3474C8.34035 12.4361 8.28262 12.5449 8.25536 12.6629C8.2281 12.7809 8.23227 12.904 8.26745 13.0199L10.8053 18.9645C10.8079 18.9732 10.8105 18.981 10.8135 18.9892C10.9519 19.3903 11.3024 19.6733 11.7261 19.6924H11.7693C11.9832 19.6936 12.1925 19.6304 12.3699 19.5111C12.5474 19.3918 12.6849 19.2219 12.7645 19.0234L19.3153 1.71817C19.3874 1.53092 19.4038 1.32677 19.3624 1.13041C19.321 0.934051 19.2236 0.753887 19.082 0.61171Z" />
</svg>
